<?xml version="1.0" encoding="UTF-8"?>
<svg id="Capa_1" xmlns="http://www.w3.org/2000/svg" viewBox="0 0 515 531">
  <defs>
    <style>
      .cls-1 {
        fill: #89cef3;
      }

      .cls-2 {
        fill: #3b487c;
      }

      .cls-3 {
        fill: #e72286;
      }
    </style>
  </defs>
  <path class="cls-2" d="M257.5,520.8c-135.92,0-246.5-110.58-246.5-246.5,0-17.11,13.87-30.98,30.98-30.98s30.98,13.87,30.98,30.98c0,101.76,82.79,184.55,184.55,184.55s184.55-82.79,184.55-184.55c0-17.11,13.87-30.98,30.98-30.98s30.98,13.87,30.98,30.98c0,135.92-110.58,246.5-246.5,246.5Z"/>
  <path class="cls-1" d="M189.41,284.85c-7.93,0-15.86-3.02-21.91-9.08-7.34-7.34-14.69-14.67-22.04-21.99-18.08-18.03-36.78-36.67-55.04-55.25-15.33-15.6-24.95-34.43-28.61-55.97l-.34-1.93c-.95-5.42-2.13-12.18-1.87-19.86.54-15.81,3.29-29.45,8.4-41.71,6.77-16.22,17.06-30.34,30.57-41.97,14.23-12.25,30.86-20.43,49.42-24.31,11.18-2.34,22.52-3.09,33.72-2.23,11.52.89,22.93,3.79,33.9,8.63,11.78,5.2,22.61,12.55,33.1,22.47.96.91,1.92,1.82,2.89,2.74,10.09-9.7,19.74-16.81,30.14-22.25,11.12-5.82,23.61-9.45,38.18-11.11,19.63-2.23,39.05.7,57.74,8.71,14.88,6.38,28.08,16.17,39.23,29.1,11.9,13.79,19.98,29.82,24.03,47.63.51,2.25.98,4.5,1.45,6.76l1.25,5.93v25.52l-.73,3.31c-.23,1.05-.45,2.11-.67,3.17-.6,2.92-1.29,6.23-2.27,9.79-5.11,18.49-13.13,33.17-24.52,44.85-19.85,20.37-43.82,44.43-64.97,65.66l-12.42,12.47c-12.07,12.13-31.68,12.17-43.81.1-12.12-12.07-12.17-31.68-.1-43.81l12.44-12.49c21.04-21.12,44.88-45.05,64.49-65.18,3.91-4.01,6.91-9.94,9.17-18.12.44-1.59.87-3.65,1.32-5.82.04-.19.08-.37.12-.56v-12.41c-.38-1.81-.76-3.63-1.17-5.43-1.81-7.94-5.25-14.77-10.53-20.9-5.02-5.82-10.49-9.95-16.74-12.63-8.79-3.77-17.4-5.11-26.31-4.09-6.94.79-12.18,2.21-16.47,4.45-5.58,2.92-11.19,7.28-17.66,13.72-4.32,4.3-8.59,8.65-12.82,12.96-1.93,1.97-3.86,3.93-5.77,5.87l-21.45,21.74-29.65-28.44c-5.71-5.48-11.32-10.88-16.98-16.24-5.25-4.97-10.33-8.5-15.51-10.78-4.54-2-9.14-3.2-13.66-3.54-5.36-.41-10.84-.04-16.29,1.1-8.31,1.74-15.4,5.21-21.69,10.62-6.23,5.36-10.75,11.54-13.82,18.89-2.21,5.3-3.37,11.63-3.66,19.94-.04,1.25.55,4.62.98,7.08l.39,2.23c1.52,8.94,5.36,16.45,11.73,22.93,18.03,18.35,36.62,36.88,54.59,54.79,7.38,7.35,14.75,14.7,22.11,22.07,12.1,12.1,12.09,31.71,0,43.81-6.05,6.05-13.98,9.07-21.9,9.07Z"/>
  <circle class="cls-3" cx="254.1" cy="319.29" r="44.15"/>
</svg>